<?xml version="1.0" encoding="UTF-8" standalone="no"?>
<svg
   width="8.0042534"
   height="8.0011387"
   version="1.1"
   id="svg4"
   xmlns="http://www.w3.org/2000/svg"
   xmlns:svg="http://www.w3.org/2000/svg">
  <defs
     id="defs8" />
  <path
     d="M 0.00425325,0.001 H 1.0352533 c 0.255,0.011 0.51,0.129 0.688,0.313 l 2.281,2.279 2.312,-2.28 c 0.266,-0.231 0.447,-0.306 0.688,-0.313 h 1 v 1 c 0,0.286 -0.034,0.55 -0.25,0.75 l -2.281,2.282 2.25,2.25 c 0.188,0.188 0.281,0.454 0.281,0.719 v 1 h -1 c -0.265,0 -0.53,-0.093 -0.719,-0.281 l -2.281,-2.281 -2.281,2.28 a 1.015,1.015 0 0 1 -0.719,0.282 H 0.00425325 v -1 c 0,-0.265 0.093,-0.53 0.281,-0.719 L 2.5662533,4.032 0.28625325,1.751 a 0.909,0.909 0 0 1 -0.282,-0.75 z"
     style="line-height:normal;-inkscape-font-specification:'Andale Mono';text-indent:0;text-align:start;text-decoration-line:none;text-transform:none;marker:none;fill:#7f7f7f;fill-opacity:1"
     color="#bebebe"
     font-weight="400"
     font-family="'Andale Mono'"
     overflow="visible"
     fill="#2e3436"
     id="path2" />
</svg>
